<svg width="1920" height="117" fill="none" xmlns="http://www.w3.org/2000/svg"><path fill="#fff" d="M954 8.66L959 0l25.98 15-5 8.66z"/><path d="M1001 .102l5 8.66-25.981 15-5-8.66 25.981-15zM450 8.66L455 0l25.98 15-5 8.66z" fill="#fff"/><path d="M497 .102l5 8.66-25.981 15-5-8.66L497 .102zm961 8.558l5-8.66 25.98 15-5 8.66z" fill="#fff"/><path d="M1505 .102l5 8.66-25.98 15-5-8.66 25.98-15zM198 8.66L203 0l25.98 15-5 8.66z" fill="#fff"/><path d="M245 .102l5 8.66-25.981 15-5-8.66L245 .102zm961 8.558l5-8.66 25.98 15-5 8.66z" fill="#fff"/><path d="M1253 .102l5 8.66-25.98 15-5-8.66 25.98-15zM702 8.66L707 0l25.98 15-5 8.66z" fill="#fff"/><path d="M749 .102l5 8.66-25.981 15-5-8.66L749 .102zm961 8.558l5-8.66 25.98 15-5 8.66z" fill="#fff"/><path d="M1757 .102l5 8.66-25.98 15-5-8.66 25.98-15zM30 8.66L35 0l25.98 15-5 8.66z" fill="#fff"/><path d="M77 .102l5 8.66-25.98 15-5-8.66L77 .102zm961 8.558l5-8.66 25.98 15-5 8.66z" fill="#fff"/><path d="M1085 .102l5 8.66-25.98 15-5-8.66 25.98-15zM534 8.66L539 0l25.98 15-5 8.66z" fill="#fff"/><path d="M581 .102l5 8.66-25.981 15-5-8.66L581 .102zm961 8.558l5-8.66 25.98 15-5 8.66z" fill="#fff"/><path d="M1589 .102l5 8.66-25.98 15-5-8.66 25.98-15zM282 8.66L287 0l25.98 15-5 8.66z" fill="#fff"/><path d="M329 .102l5 8.66-25.981 15-5-8.66L329 .102zm961 8.558l5-8.66 25.98 15-5 8.66z" fill="#fff"/><path d="M1337 .102l5 8.66-25.98 15-5-8.66 25.98-15zM786 8.66L791 0l25.98 15-5 8.66z" fill="#fff"/><path d="M833 .102l5 8.66-25.981 15-5-8.66L833 .102zm961 8.558l5-8.66 25.98 15-5 8.66z" fill="#fff"/><path d="M1841 .102l5 8.66-25.98 15-5-8.66 25.98-15zM-12 8.66L-7 0l25.98 15-5 8.66z" fill="#fff"/><path d="M35 .102l5 8.66-25.98 15-5-8.66L35 .102zM996 8.66l5-8.66 25.98 15-5 8.66z" fill="#fff"/><path d="M1043 .102l5 8.66-25.98 15-5-8.66 25.98-15zM492 8.66L497 0l25.98 15-5 8.66z" fill="#fff"/><path d="M539 .102l5 8.66-25.981 15-5-8.66L539 .102zm961 8.558l5-8.66 25.98 15-5 8.66z" fill="#fff"/><path d="M1547 .102l5 8.66-25.98 15-5-8.66 25.98-15zM240 8.66L245 0l25.98 15-5 8.66z" fill="#fff"/><path d="M287 .102l5 8.66-25.981 15-5-8.66L287 .102zm961 8.558l5-8.66 25.98 15-5 8.66z" fill="#fff"/><path d="M1295 .102l5 8.66-25.98 15-5-8.66 25.98-15zM744 8.66L749 0l25.98 15-5 8.66z" fill="#fff"/><path d="M791 .102l5 8.66-25.981 15-5-8.66L791 .102zm961 8.558l5-8.66 25.98 15-5 8.66z" fill="#fff"/><path d="M1799 .102l5 8.66-25.98 15-5-8.66 25.98-15zM72 8.66L77 0l25.98 15-5 8.66z" fill="#fff"/><path d="M119 .102l5 8.66-25.98 15-5-8.66 25.98-15zm961 8.558l5-8.66 25.98 15-5 8.66z" fill="#fff"/><path d="M1127 .102l5 8.66-25.98 15-5-8.66 25.98-15zM576 8.66L581 0l25.98 15-5 8.66z" fill="#fff"/><path d="M623 .102l5 8.66-25.981 15-5-8.66L623 .102zm961 8.558l5-8.66 25.98 15-5 8.66z" fill="#fff"/><path d="M1631 .102l5 8.66-25.98 15-5-8.66 25.98-15zM324 8.66L329 0l25.98 15-5 8.66z" fill="#fff"/><path d="M371 .102l5 8.66-25.981 15-5-8.66L371 .102zm961 8.558l5-8.66 25.98 15-5 8.66z" fill="#fff"/><path d="M1379 .102l5 8.66-25.98 15-5-8.66 25.98-15zM828 8.66L833 0l25.98 15-5 8.66z" fill="#fff"/><path d="M875 .102l5 8.66-25.981 15-5-8.66L875 .102zm961 8.558l5-8.66 25.98 15-5 8.66z" fill="#fff"/><path d="M1883 .102l5 8.66-25.98 15-5-8.66 25.98-15zM156 8.66L161 0l25.98 15-5 8.66z" fill="#fff"/><path d="M203 .102l5 8.66-25.981 15-5-8.66L203 .102zm961 8.558l5-8.66 25.98 15-5 8.66z" fill="#fff"/><path d="M1211 .102l5 8.66-25.98 15-5-8.66 25.98-15zM660 8.66L665 0l25.98 15-5 8.66z" fill="#fff"/><path d="M707 .102l5 8.66-25.981 15-5-8.66L707 .102zm961 8.558l5-8.66 25.98 15-5 8.66z" fill="#fff"/><path d="M1715 .102l5 8.66-25.98 15-5-8.66 25.98-15zM408 8.66L413 0l25.98 15-5 8.66z" fill="#fff"/><path d="M455 .102l5 8.66-25.981 15-5-8.66L455 .102zm961 8.558l5-8.66 25.98 15-5 8.66z" fill="#fff"/><path d="M1463 .102l5 8.66-25.98 15-5-8.66 25.98-15zM912 8.66L917 0l25.98 15-5 8.66z" fill="#fff"/><path d="M959 .102l5 8.66-25.981 15-5-8.66L959 .102zM114 8.66L119 0l25.98 15-5 8.66z" fill="#fff"/><path d="M161 .102l5 8.66-25.981 15-5-8.66L161 .102zm961 8.558l5-8.66 25.98 15-5 8.66z" fill="#fff"/><path d="M1169 .102l5 8.66-25.98 15-5-8.66 25.98-15zM618 8.66L623 0l25.98 15-5 8.66z" fill="#fff"/><path d="M665 .102l5 8.66-25.981 15-5-8.66L665 .102zm961 8.558l5-8.66 25.98 15-5 8.66z" fill="#fff"/><path d="M1673 .102l5 8.66-25.98 15-5-8.66 25.98-15zM366 8.66L371 0l25.98 15-5 8.66z" fill="#fff"/><path d="M413 .102l5 8.66-25.981 15-5-8.66L413 .102zm961 8.558l5-8.66 25.98 15-5 8.66z" fill="#fff"/><path d="M1421 .102l5 8.66-25.98 15-5-8.66 25.98-15zM870 8.66L875 0l25.98 15-5 8.66z" fill="#fff"/><path d="M917 .102l5 8.66-25.981 15-5-8.66L917 .102zm961 8.558l5-8.66 25.98 15-5 8.66z" fill="#fff"/><path d="M1925 .102l5 8.66-25.98 15-5-8.66 25.98-15zm-971 39.32l5-8.66 25.98 15-5 8.66z" fill="#fff"/><path d="M1001 30.863l5 8.66-25.981 15-5-8.66 25.981-15zm-551 8.559l5-8.66 25.98 15-5 8.66z" fill="#fff"/><path d="M497 30.863l5 8.66-25.981 15-5-8.66 25.981-15zm961 8.559l5-8.66 25.98 15-5 8.66z" fill="#fff"/><path d="M1505 30.863l5 8.66-25.98 15-5-8.66 25.98-15zM198 39.422l5-8.66 25.98 15-5 8.66z" fill="#fff"/><path d="M245 30.863l5 8.66-25.981 15-5-8.66 25.981-15zm961 8.559l5-8.66 25.98 15-5 8.66z" fill="#fff"/><path d="M1253 30.863l5 8.66-25.98 15-5-8.66 25.98-15zm-551 8.559l5-8.66 25.98 15-5 8.66z" fill="#fff"/><path d="M749 30.863l5 8.66-25.981 15-5-8.66 25.981-15zm961 8.559l5-8.66 25.98 15-5 8.66z" fill="#fff"/><path d="M1757 30.863l5 8.66-25.98 15-5-8.66 25.98-15zM30 39.422l5-8.66 25.98 15-5 8.66z" fill="#fff"/><path d="M77 30.863l5 8.66-25.98 15-5-8.66 25.98-15zm961 8.559l5-8.66 25.98 15-5 8.66z" fill="#fff"/><path d="M1085 30.863l5 8.66-25.98 15-5-8.66 25.98-15zm-551 8.559l5-8.66 25.98 15-5 8.66z" fill="#fff"/><path d="M581 30.863l5 8.66-25.981 15-5-8.66 25.981-15zm961 8.559l5-8.66 25.98 15-5 8.66z" fill="#fff"/><path d="M1589 30.863l5 8.66-25.98 15-5-8.66 25.98-15zM282 39.422l5-8.66 25.98 15-5 8.66z" fill="#fff"/><path d="M329 30.863l5 8.66-25.981 15-5-8.66 25.981-15zm961 8.559l5-8.66 25.98 15-5 8.66z" fill="#fff"/><path d="M1337 30.863l5 8.66-25.98 15-5-8.66 25.98-15zm-551 8.559l5-8.66 25.98 15-5 8.66z" fill="#fff"/><path d="M833 30.863l5 8.66-25.981 15-5-8.66 25.981-15zm961 8.559l5-8.66 25.98 15-5 8.66z" fill="#fff"/><path d="M1841 30.863l5 8.66-25.98 15-5-8.66 25.98-15zM-12 39.422l5-8.66 25.98 15-5 8.66z" fill="#fff"/><path d="M35 30.863l5 8.66-25.98 15-5-8.66 25.98-15zm961 8.559l5-8.66 25.98 15-5 8.66z" fill="#fff"/><path d="M1043 30.863l5 8.66-25.98 15-5-8.66 25.98-15zm-551 8.559l5-8.66 25.98 15-5 8.66z" fill="#fff"/><path d="M539 30.863l5 8.66-25.981 15-5-8.66 25.981-15zm961 8.559l5-8.66 25.98 15-5 8.66z" fill="#fff"/><path d="M1547 30.863l5 8.66-25.98 15-5-8.66 25.98-15zM240 39.422l5-8.66 25.98 15-5 8.66z" fill="#fff"/><path d="M287 30.863l5 8.66-25.981 15-5-8.66 25.981-15zm961 8.559l5-8.66 25.98 15-5 8.66z" fill="#fff"/><path d="M1295 30.863l5 8.66-25.98 15-5-8.66 25.98-15zm-551 8.559l5-8.66 25.98 15-5 8.66z" fill="#fff"/><path d="M791 30.863l5 8.66-25.981 15-5-8.66 25.981-15zm961 8.559l5-8.66 25.98 15-5 8.66z" fill="#fff"/><path d="M1799 30.863l5 8.66-25.98 15-5-8.66 25.98-15zM72 39.422l5-8.66 25.98 15-5 8.66z" fill="#fff"/><path d="M119 30.863l5 8.66-25.98 15-5-8.66 25.98-15zm961 8.559l5-8.66 25.98 15-5 8.66z" fill="#fff"/><path d="M1127 30.863l5 8.66-25.98 15-5-8.66 25.98-15zm-551 8.559l5-8.66 25.98 15-5 8.66z" fill="#fff"/><path d="M623 30.863l5 8.66-25.981 15-5-8.66 25.981-15zm961 8.559l5-8.66 25.98 15-5 8.66z" fill="#fff"/><path d="M1631 30.863l5 8.66-25.98 15-5-8.66 25.98-15zM324 39.422l5-8.66 25.98 15-5 8.66z" fill="#fff"/><path d="M371 30.863l5 8.66-25.981 15-5-8.66 25.981-15zm961 8.559l5-8.66 25.98 15-5 8.66z" fill="#fff"/><path d="M1379 30.863l5 8.66-25.98 15-5-8.66 25.98-15zm-551 8.559l5-8.66 25.98 15-5 8.66z" fill="#fff"/><path d="M875 30.863l5 8.66-25.981 15-5-8.66 25.981-15zm961 8.559l5-8.66 25.98 15-5 8.66z" fill="#fff"/><path d="M1883 30.863l5 8.66-25.98 15-5-8.66 25.98-15zM156 39.422l5-8.66 25.98 15-5 8.66z" fill="#fff"/><path d="M203 30.863l5 8.66-25.981 15-5-8.66 25.981-15zm961 8.559l5-8.66 25.98 15-5 8.66z" fill="#fff"/><path d="M1211 30.863l5 8.66-25.98 15-5-8.66 25.98-15zm-551 8.559l5-8.66 25.98 15-5 8.66z" fill="#fff"/><path d="M707 30.863l5 8.66-25.981 15-5-8.66 25.981-15zm961 8.559l5-8.66 25.98 15-5 8.66z" fill="#fff"/><path d="M1715 30.863l5 8.66-25.98 15-5-8.66 25.98-15zM408 39.422l5-8.66 25.98 15-5 8.66z" fill="#fff"/><path d="M455 30.863l5 8.66-25.981 15-5-8.66 25.981-15zm961 8.559l5-8.66 25.98 15-5 8.66z" fill="#fff"/><path d="M1463 30.863l5 8.66-25.98 15-5-8.66 25.98-15zm-551 8.559l5-8.66 25.98 15-5 8.66z" fill="#fff"/><path d="M959 30.863l5 8.66-25.981 15-5-8.66 25.981-15zm-845 8.559l5-8.66 25.98 15-5 8.66z" fill="#fff"/><path d="M161 30.863l5 8.66-25.981 15-5-8.66 25.981-15zm961 8.559l5-8.66 25.98 15-5 8.66z" fill="#fff"/><path d="M1169 30.863l5 8.66-25.98 15-5-8.66 25.98-15zm-551 8.559l5-8.66 25.98 15-5 8.66z" fill="#fff"/><path d="M665 30.863l5 8.66-25.981 15-5-8.66 25.981-15zm961 8.559l5-8.66 25.98 15-5 8.66z" fill="#fff"/><path d="M1673 30.863l5 8.66-25.98 15-5-8.66 25.98-15zM366 39.422l5-8.66 25.98 15-5 8.66z" fill="#fff"/><path d="M413 30.863l5 8.66-25.981 15-5-8.66 25.981-15zm961 8.559l5-8.66 25.98 15-5 8.66z" fill="#fff"/><path d="M1421 30.863l5 8.66-25.98 15-5-8.66 25.98-15zm-551 8.559l5-8.66 25.98 15-5 8.66z" fill="#fff"/><path d="M917 30.863l5 8.66-25.981 15-5-8.66 25.981-15zm961 8.559l5-8.66 25.98 15-5 8.66z" fill="#fff"/><path d="M1925 30.863l5 8.66-25.98 15-5-8.66 25.98-15zM954 70.184l5-8.66 25.981 15-5 8.66z" fill="#fff"/><path d="M1001 61.625l5 8.66-25.981 15-5-8.66 25.981-15zm-551 8.559l5-8.66 25.981 15-5 8.66z" fill="#fff"/><path d="M497 61.625l5 8.66-25.981 15-5-8.66 25.981-15zm961 8.559l5-8.66 25.981 15-5 8.66z" fill="#fff"/><path d="M1505 61.625l5 8.66-25.98 15-5-8.66 25.98-15zM198 70.184l5-8.66 25.981 15-5 8.66z" fill="#fff"/><path d="M245 61.625l5 8.66-25.981 15-5-8.66 25.981-15zm961 8.559l5-8.66 25.981 15-5 8.66z" fill="#fff"/><path d="M1253 61.625l5 8.66-25.98 15-5-8.66 25.98-15zm-551 8.559l5-8.66 25.981 15-5 8.66z" fill="#fff"/><path d="M749 61.625l5 8.66-25.981 15-5-8.66 25.981-15zm961 8.559l5-8.66 25.981 15-5 8.66z" fill="#fff"/><path d="M1757 61.625l5 8.66-25.98 15-5-8.66 25.98-15zM30 70.184l5-8.66 25.981 15-5 8.66z" fill="#fff"/><path d="M77 61.625l5 8.66-25.98 15-5-8.66 25.98-15zm961 8.559l5-8.66 25.981 15-5 8.66z" fill="#fff"/><path d="M1085 61.625l5 8.66-25.98 15-5-8.66 25.98-15zm-551 8.559l5-8.66 25.981 15-5 8.66z" fill="#fff"/><path d="M581 61.625l5 8.66-25.981 15-5-8.66 25.981-15zm961 8.559l5-8.66 25.981 15-5 8.66z" fill="#fff"/><path d="M1589 61.625l5 8.66-25.98 15-5-8.66 25.98-15zM282 70.184l5-8.66 25.981 15-5 8.66z" fill="#fff"/><path d="M329 61.625l5 8.66-25.981 15-5-8.66 25.981-15zm961 8.559l5-8.66 25.981 15-5 8.66z" fill="#fff"/><path d="M1337 61.625l5 8.66-25.98 15-5-8.66 25.98-15zm-551 8.559l5-8.66 25.981 15-5 8.66z" fill="#fff"/><path d="M833 61.625l5 8.66-25.981 15-5-8.66 25.981-15zm961 8.559l5-8.66 25.981 15-5 8.66z" fill="#fff"/><path d="M1841 61.625l5 8.66-25.98 15-5-8.66 25.98-15zM-12 70.184l5-8.66 25.981 15-5 8.66z" fill="#fff"/><path d="M35 61.625l5 8.66-25.98 15-5-8.66 25.98-15zm961 8.559l5-8.66 25.981 15-5 8.66z" fill="#fff"/><path d="M1043 61.625l5 8.66-25.98 15-5-8.66 25.98-15zm-551 8.559l5-8.66 25.981 15-5 8.66z" fill="#fff"/><path d="M539 61.625l5 8.66-25.981 15-5-8.66 25.981-15zm961 8.559l5-8.66 25.981 15-5 8.66z" fill="#fff"/><path d="M1547 61.625l5 8.66-25.98 15-5-8.66 25.98-15zM240 70.184l5-8.66 25.981 15-5 8.66z" fill="#fff"/><path d="M287 61.625l5 8.66-25.981 15-5-8.66 25.981-15zm961 8.559l5-8.66 25.981 15-5 8.66z" fill="#fff"/><path d="M1295 61.625l5 8.66-25.98 15-5-8.66 25.98-15zm-551 8.559l5-8.66 25.981 15-5 8.66z" fill="#fff"/><path d="M791 61.625l5 8.66-25.981 15-5-8.66 25.981-15zm961 8.559l5-8.66 25.981 15-5 8.66z" fill="#fff"/><path d="M1799 61.625l5 8.66-25.98 15-5-8.66 25.98-15zM72 70.184l5-8.66 25.981 15-5 8.66z" fill="#fff"/><path d="M119 61.625l5 8.66-25.98 15-5-8.66 25.98-15zm961 8.559l5-8.66 25.981 15-5 8.66z" fill="#fff"/><path d="M1127 61.625l5 8.66-25.98 15-5-8.66 25.98-15zm-551 8.559l5-8.66 25.981 15-5 8.66z" fill="#fff"/><path d="M623 61.625l5 8.66-25.981 15-5-8.66 25.981-15zm961 8.559l5-8.66 25.981 15-5 8.66z" fill="#fff"/><path d="M1631 61.625l5 8.66-25.98 15-5-8.66 25.98-15zM324 70.184l5-8.66 25.981 15-5 8.66z" fill="#fff"/><path d="M371 61.625l5 8.66-25.981 15-5-8.66 25.981-15zm961 8.559l5-8.66 25.981 15-5 8.66z" fill="#fff"/><path d="M1379 61.625l5 8.66-25.98 15-5-8.66 25.98-15zm-551 8.559l5-8.66 25.981 15-5 8.66z" fill="#fff"/><path d="M875 61.625l5 8.66-25.981 15-5-8.66 25.981-15zm961 8.559l5-8.66 25.981 15-5 8.66z" fill="#fff"/><path d="M1883 61.625l5 8.66-25.98 15-5-8.66 25.98-15zM156 70.184l5-8.66 25.981 15-5 8.66z" fill="#fff"/><path d="M203 61.625l5 8.66-25.981 15-5-8.66 25.981-15zm961 8.559l5-8.66 25.981 15-5 8.66z" fill="#fff"/><path d="M1211 61.625l5 8.66-25.98 15-5-8.66 25.98-15zm-551 8.559l5-8.66 25.981 15-5 8.66z" fill="#fff"/><path d="M707 61.625l5 8.66-25.981 15-5-8.66 25.981-15zm961 8.559l5-8.66 25.981 15-5 8.66z" fill="#fff"/><path d="M1715 61.625l5 8.66-25.98 15-5-8.66 25.98-15zM408 70.184l5-8.66 25.981 15-5 8.66z" fill="#fff"/><path d="M455 61.625l5 8.66-25.981 15-5-8.66 25.981-15zm961 8.559l5-8.66 25.981 15-5 8.66z" fill="#fff"/><path d="M1463 61.625l5 8.66-25.98 15-5-8.66 25.98-15zm-551 8.559l5-8.66 25.981 15-5 8.66z" fill="#fff"/><path d="M959 61.625l5 8.66-25.981 15-5-8.66 25.981-15zm-845 8.559l5-8.66 25.981 15-5 8.66z" fill="#fff"/><path d="M161 61.625l5 8.66-25.981 15-5-8.66 25.981-15zm961 8.559l5-8.66 25.981 15-5 8.66z" fill="#fff"/><path d="M1169 61.625l5 8.66-25.98 15-5-8.66 25.98-15zm-551 8.559l5-8.66 25.981 15-5 8.66z" fill="#fff"/><path d="M665 61.625l5 8.66-25.981 15-5-8.66 25.981-15zm961 8.559l5-8.66 25.981 15-5 8.66z" fill="#fff"/><path d="M1673 61.625l5 8.66-25.98 15-5-8.66 25.98-15zM366 70.184l5-8.66 25.981 15-5 8.66z" fill="#fff"/><path d="M413 61.625l5 8.66-25.981 15-5-8.66 25.981-15zm961 8.559l5-8.66 25.981 15-5 8.66z" fill="#fff"/><path d="M1421 61.625l5 8.66-25.98 15-5-8.66 25.98-15zm-551 8.559l5-8.66 25.981 15-5 8.66z" fill="#fff"/><path d="M917 61.625l5 8.66-25.981 15-5-8.66 25.981-15zm961 8.559l5-8.66 25.981 15-5 8.66z" fill="#fff"/><path d="M1925 61.625l5 8.66-25.98 15-5-8.66 25.98-15zm-971 39.32l5-8.66 25.98 15-5 8.66z" fill="#fff"/><path d="M1001 92.387l5 8.66-25.981 15-5-8.66 25.981-15zm-551 8.558l5-8.66 25.98 15-5 8.66z" fill="#fff"/><path d="M497 92.387l5 8.66-25.981 15-5-8.66 25.981-15zm961 8.558l5-8.66 25.98 15-5 8.66z" fill="#fff"/><path d="M1505 92.387l5 8.66-25.98 15-5-8.66 25.98-15zm-1307 8.558l5-8.66 25.98 15-5 8.66z" fill="#fff"/><path d="M245 92.387l5 8.66-25.981 15-5-8.66 25.981-15zm961 8.558l5-8.66 25.98 15-5 8.66z" fill="#fff"/><path d="M1253 92.387l5 8.66-25.98 15-5-8.66 25.98-15zm-551 8.558l5-8.66 25.98 15-5 8.66z" fill="#fff"/><path d="M749 92.387l5 8.66-25.981 15-5-8.66 25.981-15zm961 8.558l5-8.66 25.98 15-5 8.66z" fill="#fff"/><path d="M1757 92.387l5 8.66-25.98 15-5-8.66 25.98-15zM30 100.945l5-8.66 25.98 15-5 8.66z" fill="#fff"/><path d="M77 92.387l5 8.66-25.98 15-5-8.66 25.98-15zm961 8.558l5-8.66 25.98 15-5 8.66z" fill="#fff"/><path d="M1085 92.387l5 8.66-25.98 15-5-8.66 25.98-15zm-551 8.558l5-8.66 25.98 15-5 8.66z" fill="#fff"/><path d="M581 92.387l5 8.66-25.981 15-5-8.66 25.981-15zm961 8.558l5-8.66 25.98 15-5 8.66z" fill="#fff"/><path d="M1589 92.387l5 8.66-25.98 15-5-8.66 25.98-15zm-1307 8.558l5-8.66 25.98 15-5 8.66z" fill="#fff"/><path d="M329 92.387l5 8.66-25.981 15-5-8.66 25.981-15zm961 8.558l5-8.66 25.98 15-5 8.66z" fill="#fff"/><path d="M1337 92.387l5 8.66-25.98 15-5-8.66 25.98-15zm-551 8.558l5-8.66 25.98 15-5 8.66z" fill="#fff"/><path d="M833 92.387l5 8.66-25.981 15-5-8.66 25.981-15zm961 8.558l5-8.66 25.98 15-5 8.66z" fill="#fff"/><path d="M1841 92.387l5 8.66-25.98 15-5-8.66 25.98-15zm-1853 8.558l5-8.66 25.98 15-5 8.66z" fill="#fff"/><path d="M35 92.387l5 8.66-25.98 15-5-8.66 25.98-15zm961 8.558l5-8.66 25.98 15-5 8.66z" fill="#fff"/><path d="M1043 92.387l5 8.66-25.98 15-5-8.66 25.98-15zm-551 8.558l5-8.66 25.98 15-5 8.66z" fill="#fff"/><path d="M539 92.387l5 8.66-25.981 15-5-8.66 25.981-15zm961 8.558l5-8.66 25.98 15-5 8.66z" fill="#fff"/><path d="M1547 92.387l5 8.66-25.98 15-5-8.66 25.98-15zm-1307 8.558l5-8.66 25.98 15-5 8.66z" fill="#fff"/><path d="M287 92.387l5 8.66-25.981 15-5-8.66 25.981-15zm961 8.558l5-8.66 25.98 15-5 8.66z" fill="#fff"/><path d="M1295 92.387l5 8.66-25.98 15-5-8.66 25.98-15zm-551 8.558l5-8.66 25.98 15-5 8.66z" fill="#fff"/><path d="M791 92.387l5 8.66-25.981 15-5-8.66 25.981-15zm961 8.558l5-8.66 25.98 15-5 8.66z" fill="#fff"/><path d="M1799 92.387l5 8.66-25.98 15-5-8.66 25.98-15zM72 100.945l5-8.66 25.98 15-5 8.66z" fill="#fff"/><path d="M119 92.387l5 8.66-25.98 15-5-8.66 25.98-15zm961 8.558l5-8.66 25.98 15-5 8.66z" fill="#fff"/><path d="M1127 92.387l5 8.66-25.98 15-5-8.66 25.98-15zm-551 8.558l5-8.66 25.98 15-5 8.66z" fill="#fff"/><path d="M623 92.387l5 8.66-25.981 15-5-8.66 25.981-15zm961 8.558l5-8.66 25.98 15-5 8.66z" fill="#fff"/><path d="M1631 92.387l5 8.66-25.98 15-5-8.66 25.98-15zm-1307 8.558l5-8.66 25.98 15-5 8.66z" fill="#fff"/><path d="M371 92.387l5 8.66-25.981 15-5-8.66 25.981-15zm961 8.558l5-8.66 25.98 15-5 8.66z" fill="#fff"/><path d="M1379 92.387l5 8.66-25.98 15-5-8.66 25.98-15zm-551 8.558l5-8.66 25.98 15-5 8.66z" fill="#fff"/><path d="M875 92.387l5 8.66-25.981 15-5-8.66 25.981-15zm961 8.558l5-8.66 25.98 15-5 8.66z" fill="#fff"/><path d="M1883 92.387l5 8.66-25.98 15-5-8.66 25.98-15zm-1727 8.558l5-8.66 25.98 15-5 8.66z" fill="#fff"/><path d="M203 92.387l5 8.66-25.981 15-5-8.66 25.981-15zm961 8.558l5-8.66 25.98 15-5 8.66z" fill="#fff"/><path d="M1211 92.387l5 8.66-25.98 15-5-8.66 25.98-15zm-551 8.558l5-8.66 25.98 15-5 8.66z" fill="#fff"/><path d="M707 92.387l5 8.66-25.981 15-5-8.66 25.981-15zm961 8.558l5-8.66 25.98 15-5 8.66z" fill="#fff"/><path d="M1715 92.387l5 8.66-25.98 15-5-8.66 25.98-15zm-1307 8.558l5-8.66 25.98 15-5 8.66z" fill="#fff"/><path d="M455 92.387l5 8.66-25.981 15-5-8.66 25.981-15zm961 8.558l5-8.66 25.98 15-5 8.66z" fill="#fff"/><path d="M1463 92.387l5 8.66-25.98 15-5-8.66 25.98-15zm-551 8.558l5-8.66 25.98 15-5 8.66z" fill="#fff"/><path d="M959 92.387l5 8.66-25.981 15-5-8.66 25.981-15zm-845 8.558l5-8.66 25.98 15-5 8.66z" fill="#fff"/><path d="M161 92.387l5 8.66-25.981 15-5-8.66 25.981-15zm961 8.558l5-8.66 25.98 15-5 8.66z" fill="#fff"/><path d="M1169 92.387l5 8.66-25.98 15-5-8.66 25.98-15zm-551 8.558l5-8.66 25.98 15-5 8.66z" fill="#fff"/><path d="M665 92.387l5 8.66-25.981 15-5-8.66 25.981-15zm961 8.558l5-8.66 25.98 15-5 8.66z" fill="#fff"/><path d="M1673 92.387l5 8.66-25.98 15-5-8.66 25.98-15zm-1307 8.558l5-8.66 25.98 15-5 8.66z" fill="#fff"/><path d="M413 92.387l5 8.66-25.981 15-5-8.66 25.981-15zm961 8.558l5-8.66 25.98 15-5 8.66z" fill="#fff"/><path d="M1421 92.387l5 8.66-25.98 15-5-8.66 25.98-15zm-551 8.558l5-8.66 25.98 15-5 8.66z" fill="#fff"/><path d="M917 92.387l5 8.66-25.981 15-5-8.66 25.981-15zm961 8.558l5-8.66 25.98 15-5 8.66z" fill="#fff"/><path d="M1925 92.387l5 8.66-25.98 15-5-8.66 25.98-15z" fill="#fff"/></svg>